<?xml version="1.0" standalone="no"?>
<!DOCTYPE svg PUBLIC "-//W3C//DTD SVG 20010904//EN"
 "http://www.w3.org/TR/2001/REC-SVG-20010904/DTD/svg10.dtd">
<svg version="1.0" xmlns="http://www.w3.org/2000/svg"
 width="1024.000000pt" height="1024.000000pt" viewBox="0 0 1024.000000 1024.000000"
 preserveAspectRatio="xMidYMid meet">

<g transform="translate(0.000000,1024.000000) scale(0.100000,-0.100000)"
fill="#000000" stroke="none">
<path d="M3751 7215 c-101 -23 -160 -44 -239 -86 -223 -118 -378 -313 -444
-558 -30 -109 -29 -314 1 -426 27 -99 78 -209 135 -289 51 -70 161 -180 225
-221 l43 -29 -53 -18 c-93 -31 -250 -116 -339 -182 -209 -156 -382 -403 -464
-661 -80 -254 -80 -545 1 -795 115 -354 402 -640 750 -747 80 -24 103 -27 253
-27 178 -1 242 10 366 63 128 55 197 104 319 226 128 127 227 254 495 630 232
326 300 415 315 415 15 0 97 -110 350 -465 376 -528 517 -678 739 -785 145
-70 217 -85 406 -85 195 0 263 15 425 95 125 61 211 126 317 239 149 159 252
359 299 581 27 125 31 359 10 480 -58 326 -263 659 -520 844 -89 64 -245 144
-333 172 l-57 17 57 40 c161 111 282 274 342 462 32 99 40 330 15 440 -77 348
-369 620 -725 676 -44 7 -120 9 -185 6 -228 -12 -410 -94 -572 -259 -96 -97
-117 -126 -168 -233 -58 -120 -75 -188 -82 -325 -9 -195 37 -370 140 -526 49
-74 188 -216 245 -249 18 -11 32 -22 32 -25 0 -3 -42 -22 -93 -43 -177 -72
-362 -197 -533 -359 -56 -54 -106 -98 -111 -98 -5 0 -31 23 -58 51 -171 175
-428 348 -628 424 l-58 21 68 51 c235 175 357 417 355 708 -1 251 -88 452
-268 626 -103 99 -227 170 -366 210 -97 27 -314 35 -407 14z m292 -350 c278
-72 452 -359 382 -630 -26 -100 -63 -165 -139 -241 -131 -131 -298 -181 -478
-143 -188 39 -357 208 -397 397 -57 271 111 545 379 616 72 19 182 20 253 1z
m2390 0 c245 -64 410 -289 394 -540 -23 -375 -415 -597 -756 -428 -116 58
-231 203 -267 338 -45 167 11 370 136 495 125 125 323 179 493 135z m-2310
-1569 c223 -43 408 -151 632 -368 l110 -106 -31 -44 c-17 -23 -126 -178 -243
-343 -360 -507 -452 -626 -573 -741 -131 -124 -254 -171 -428 -161 -292 15
-552 249 -642 579 -29 107 -35 298 -13 413 34 183 118 347 248 482 204 213
479 322 775 307 51 -2 125 -11 165 -18z m2411 -2 c203 -42 367 -134 517 -290
81 -86 120 -143 169 -247 70 -149 85 -220 85 -402 0 -186 -19 -274 -86 -409
-214 -424 -689 -548 -998 -261 -102 95 -191 209 -457 581 -136 192 -281 393
-321 446 -40 53 -73 101 -73 106 0 17 215 218 299 281 150 111 341 190 510
211 90 12 259 4 355 -16z"/>
</g>
</svg>
